<mxfile host="app.diagrams.net" modified="2023-10-18T03:00:46.325Z" agent="Mozilla/5.0 (Windows NT 10.0; Win64; x64) AppleWebKit/537.36 (KHTML, like Gecko) Chrome/118.0.0.0 Safari/537.36 Edg/118.0.2088.46" version="22.0.4" etag="K3EfThvySgyAM4cxL4zx" type="github">
  <diagram name="Page-1" id="3IuoYixjgonm-uhqvIe5">
    <mxGraphModel>
      <root>
        <mxCell id="0" />
        <mxCell id="1" parent="0" />
      </root>
    </mxGraphModel>
  </diagram>
</mxfile>
